/* XPM */
static char * portolan_16x16_xpm[] = {
"16 16 38 1",
" 	c None",
".	c #CC0B0A",
"+	c #CD0C0B",
"@	c #CC0807",
"#	c #713E90",
"$	c #CC0808",
"%	c #CC0908",
"&	c #713D8F",
"*	c #642B87",
"=	c #CB0707",
"-	c #CB0505",
";	c #6C348A",
">	c #632C87",
",	c #693188",
"'	c #783783",
")	c #EA9A9A",
"!	c #E89393",
"~	c #76307C",
"{	c #6A348B",
"]	c #CB0504",
"^	c #EA9B9B",
"/	c #FFFFFF",
"(	c #E68787",
"_	c #CB0606",
":	c #E99696",
"<	c #E58181",
"[	c #77317D",
"}	c #E78A8A",
"|	c #E58282",
"1	c #762A77",
"2	c #6B3389",
"3	c #632B86",
"4	c #683188",
"5	c #CB0404",
"6	c #CA0607",
"7	c #69338A",
"8	c #632A86",
"9	c #6E3A8E",
"                ",
"                ",
"        .       ",
"       +@       ",
"    #  $%  &    ",
"     * =-;>     ",
"     ,')!~{     ",
"  .@%]^//(_$+   ",
"   +$=://<-%@.  ",
"      [}|12     ",
"     345678     ",
"    9  %$  9    ",
"       @+       ",
"       .        ",
"                ",
"                "};
