/* XPM */
static char * portolan_32x32_xpm[] = {
"32 32 84 1",
" 	c None",
".	c #D42F2D",
"+	c #CE1312",
"@	c #CE1412",
"#	c #CF1918",
"$	c #CD0F0E",
"%	c #CE1211",
"&	c #CB0403",
"*	c #CD0C0B",
"=	c #CA0000",
"-	c #794895",
";	c #CE1614",
">	c #662F88",
",	c #CE1514",
"'	c #CE1513",
")	c #734191",
"!	c #632B86",
"~	c #6A348B",
"{	c #612885",
"]	c #6C368C",
"^	c #CD0E0D",
"/	c #673189",
"(	c #6D388D",
"_	c #622986",
":	c #652D88",
"<	c #764492",
"[	c #CC0D0C",
"}	c #CB0606",
"|	c #71388A",
"1	c #652E88",
"2	c #703C8F",
"3	c #68257C",
"4	c #CF1919",
"5	c #DD5B5B",
"6	c #DB5454",
"7	c #CD0F0F",
"8	c #712270",
"9	c #682D84",
"0	c #A86C9A",
"a	c #FDF5F5",
"b	c #FFFFFF",
"c	c #FBEAEA",
"d	c #A04F7E",
"e	c #CA0505",
"f	c #D01A1A",
"g	c #FDF6F6",
"h	c #F9E2E2",
"i	c #C9080A",
"j	c #DE5E5E",
"k	c #D53535",
"l	c #DC5959",
"m	c #D42F2F",
"n	c #CC0C0C",
"o	c #CD1213",
"p	c #FBEDED",
"q	c #F6D3D3",
"r	c #CB0303",
"s	c #713D8F",
"t	c #A25483",
"u	c #FAE6E6",
"v	c #F6D5D5",
"w	c #9C3B6B",
"x	c #6E3488",
"y	c #632A86",
"z	c #CC0808",
"A	c #D63939",
"B	c #D43232",
"C	c #CA0304",
"D	c #672C84",
"E	c #CA0405",
"F	c #C80A0C",
"G	c #69328A",
"H	c #754392",
"I	c #6D398D",
"J	c #764593",
"K	c #642C87",
"L	c #703D8F",
"M	c #68328A",
"N	c #723F90",
"O	c #724091",
"P	c #713E90",
"Q	c #CE1615",
"R	c #D63C38",
"S	c #DC5D57",
"                .               ",
"                +               ",
"                @               ",
"               #$               ",
"               %&               ",
"               *=               ",
"               ==               ",
"               ==               ",
"        -      ==;     -        ",
"         >    ,=='   )!         ",
"         ~{]  %==^  /{(         ",
"          _{:<[==}|{{1          ",
"          2{{345678{{           ",
"           980abbcd3(           ",
"        ;'^efgbbbbh}i%,         ",
" @@$&=======jbbbbbbk======*%#   ",
"   #%*======lbbbbbbm=======&$+' ",
"         ,%nopbbbbqr}^';        ",
"           s3tubbvw8x           ",
"           y{8zABC3{{           ",
"          ~{{DE==FG{{:          ",
"         H{{I ^==% JK{L         ",
"         KM   '==,   (_         ",
"        NO    ;==      P        ",
"               ==               ",
"               ==               ",
"               =*               ",
"               &%               ",
"               $#               ",
"               @Q               ",
"               @R               ",
"                S               "};
