<?xml version="1.0" encoding="UTF-8" standalone="no"?>
<!-- Created with Inkscape (http://www.inkscape.org/) -->

<svg
   xmlns:dc="http://purl.org/dc/elements/1.1/"
   xmlns:cc="http://creativecommons.org/ns#"
   xmlns:rdf="http://www.w3.org/1999/02/22-rdf-syntax-ns#"
   xmlns:svg="http://www.w3.org/2000/svg"
   xmlns="http://www.w3.org/2000/svg"
   xmlns:sodipodi="http://sodipodi.sourceforge.net/DTD/sodipodi-0.dtd"
   xmlns:inkscape="http://www.inkscape.org/namespaces/inkscape"
   width="210mm"
   height="297mm"
   id="svg3047"
   version="1.1"
   inkscape:version="0.47 r22583"
   sodipodi:docname="portolan_icon.svg"
   inkscape:export-filename="/home/vincent/Portolan_DEV/org.eclipse.portolan.rcp/icons/icon_254x254.png"
   inkscape:export-xdpi="122.99044"
   inkscape:export-ydpi="122.99044">
  <defs
     id="defs3049">
    <inkscape:perspective
       sodipodi:type="inkscape:persp3d"
       inkscape:vp_x="0 : 526.18109 : 1"
       inkscape:vp_y="0 : 1000 : 0"
       inkscape:vp_z="744.09448 : 526.18109 : 1"
       inkscape:persp3d-origin="372.04724 : 350.78739 : 1"
       id="perspective3055" />
    <inkscape:perspective
       id="perspective3039"
       inkscape:persp3d-origin="0.5 : 0.33333333 : 1"
       inkscape:vp_z="1 : 0.5 : 1"
       inkscape:vp_y="0 : 1000 : 0"
       inkscape:vp_x="0 : 0.5 : 1"
       sodipodi:type="inkscape:persp3d" />
    <inkscape:perspective
       id="perspective3037"
       inkscape:persp3d-origin="0.5 : 0.33333333 : 1"
       inkscape:vp_z="1 : 0.5 : 1"
       inkscape:vp_y="0 : 1000 : 0"
       inkscape:vp_x="0 : 0.5 : 1"
       sodipodi:type="inkscape:persp3d" />
  </defs>
  <sodipodi:namedview
     id="base"
     pagecolor="#ffffff"
     bordercolor="#666666"
     borderopacity="1.0"
     inkscape:pageopacity="0.0"
     inkscape:pageshadow="2"
     inkscape:zoom="0.98994949"
     inkscape:cx="361.45765"
     inkscape:cy="560.00634"
     inkscape:document-units="px"
     inkscape:current-layer="layer1"
     showgrid="false"
     inkscape:window-width="1920"
     inkscape:window-height="1053"
     inkscape:window-x="0"
     inkscape:window-y="0"
     inkscape:window-maximized="1" />
  <metadata
     id="metadata3052">
    <rdf:RDF>
      <cc:Work
         rdf:about="">
        <dc:format>image/svg+xml</dc:format>
        <dc:type
           rdf:resource="http://purl.org/dc/dcmitype/StillImage" />
        <dc:title></dc:title>
      </cc:Work>
    </rdf:RDF>
  </metadata>
  <g
     inkscape:label="Calque 1"
     inkscape:groupmode="layer"
     id="layer1">
    <g
       transform="matrix(3.4074067,0,0,3.4074067,-909.14908,-1094.457)"
       id="g3024">
      <path
         d="m 680.8428,502.33412 c 0.0506,1.21045 -36.76721,6.30803 -37.63325,7.15523 -0.88863,0.8693 -7.59173,38.24968 -8.83377,38.30163 -1.21045,0.0506 -6.30803,-36.76721 -7.15523,-37.63324 -0.8693,-0.88864 -38.24968,-7.59174 -38.30163,-8.83378 -0.0506,-1.21045 36.76721,-6.30803 37.63324,-7.15523 0.88864,-0.8693 7.59174,-38.24968 8.83378,-38.30163 1.21045,-0.0506 6.30803,36.76721 7.15523,37.63325 0.8693,0.88863 38.24968,7.59173 38.30163,8.83377 z"
         inkscape:randomized="0"
         inkscape:rounded="0.031625969"
         inkscape:flatsided="false"
         sodipodi:arg2="0.74361959"
         sodipodi:arg1="0.010988569"
         sodipodi:r2="11.315807"
         sodipodi:r1="45.964718"
         sodipodi:cy="501.82904"
         sodipodi:cx="634.88086"
         sodipodi:sides="4"
         id="path4355-7"
         style="fill:#612885;fill-opacity:1;stroke:none"
         sodipodi:type="star"
         transform="matrix(0.41960186,0.41960186,-0.41960186,0.41960186,315.40226,-18.778476)" />
      <path
         transform="matrix(0.59340664,0,0,0.59340664,-5.5114705,160.09871)"
         d="m 680.8428,502.33412 c -0.0202,1.24794 -37.97893,5.94617 -38.87112,6.81897 -0.89022,0.87087 -6.35071,38.65804 -7.5959,38.63789 -1.24794,-0.0202 -5.94618,-37.97893 -6.81897,-38.87112 -0.87087,-0.89022 -38.65804,-6.35071 -38.63789,-7.5959 0.0202,-1.24794 37.97893,-5.94617 38.87112,-6.81897 0.89022,-0.87087 6.35071,-38.65804 7.5959,-38.63789 1.24794,0.0202 5.94617,37.97893 6.81897,38.87112 0.87087,0.89022 38.65804,6.35071 38.63789,7.5959 z"
         inkscape:randomized="0"
         inkscape:rounded="0.031625969"
         inkscape:flatsided="false"
         sodipodi:arg2="0.80157666"
         sodipodi:arg1="0.010988569"
         sodipodi:r2="10.194186"
         sodipodi:r1="45.964718"
         sodipodi:cy="501.82904"
         sodipodi:cx="634.88086"
         sodipodi:sides="4"
         id="path4355"
         style="fill:#ca0000;fill-opacity:1;stroke:none"
         sodipodi:type="star" />
      <path
         transform="matrix(0.49800478,0,0,0.49800478,56.052421,208.16268)"
         d="m 651.89535,501.98718 c 0,10.23367 -8.29602,18.52969 -18.52969,18.52969 -10.23366,0 -18.52969,-8.29602 -18.52969,-18.52969 0,-10.23366 8.29603,-18.52969 18.52969,-18.52969 10.23367,0 18.52969,8.29603 18.52969,18.52969 z"
         sodipodi:ry="18.529692"
         sodipodi:rx="18.529692"
         sodipodi:cy="501.98718"
         sodipodi:cx="633.36566"
         id="path4383"
         style="fill:#ffffff;fill-opacity:1;stroke:none"
         sodipodi:type="arc" />
    </g>
  </g>
</svg>
